<svg width="2696" height="1322.2" version="1.1" xmlns="http://www.w3.org/2000/svg" xmlns:xlink="http://www.w3.org/1999/xlink">
<!-- Generated at Sat Dec 10 15:37:57 2016 by:
  Graph::Easy v0.76
  Graph::Easy::As_svg v0.23
-->

<title>Untitled graph</title>
<defs>
 <!-- open arrow -->
 <g id="ah" stroke-linecap="round" stroke-width="1">
  <line x1="-8" y1="-4" x2="1" y2="0" />
  <line x1="1" y1="0" x2="-8" y2="4" />
 </g>

 <!-- class definitions -->
 <style type="text/css"><![CDATA[
 .edge {
  font-size: 13px;
  stroke: black;
  text-align: center;
 }
 .graph {
  font-size: 16px;
  text-align: center;
 }
 .node {
  font-size: 16px;
  text-align: center;
 }
 ]]></style>
</defs>

<!-- graph background with border (mainly for printing) -->
<rect x="0.5" y="0.5" width="2694" height="1320.2" fill="white" stroke="white" />

<g id="0" class="edge">
 <!-- from BookingBot.pm to Localization -->
 <!-- vertical -->
 <line x1="1042.1" y1="238.6" x2="1042.1" y2="296.2" stroke="#000000" />

 <!-- vertical -->
 <line x1="1042.1" y1="296.2" x2="1042.1" y2="341" stroke="#000000" />

 <!-- vertical -->
 <line x1="1042.1" y1="341" x2="1042.1" y2="397.6" stroke="#000000" />
 <use stroke="#000000" xlink:href="#ah" transform="translate(1042.1 398.6)rotate(90)"/>
</g>

<g id="11" class="edge">
 <!-- from BookingBot.pm to FSMFactory -->
 <!-- horizontal -->
 <line x1="1106.64" y1="139.4" x2="1161.96" y2="139.4" stroke="#000000" />
 <use stroke="#000000" xlink:href="#ah" x="1162.96" y="139.4"/>
</g>

<g id="13" class="edge">
 <!-- from BookingBot.pm to common::sense -->
 <!-- vertical -->
 <line x1="772.7" y1="60.4" x2="772.7" y2="110.6" stroke="#000000" />
 <use stroke="#000000" xlink:href="#ah" transform="translate(772.7 59.4)rotate(-90)"/>
</g>

<g id="15" class="edge">
 <!-- from BookingBot.pm to Groups -->
 <!-- vertical -->
 <line x1="772.7" y1="238.6" x2="772.7" y2="288.8" stroke="#000000" />
 <use stroke="#000000" xlink:href="#ah" transform="translate(772.7 289.8)rotate(90)"/>
</g>

<g id="17" class="edge">
 <!-- from Contacts.pm to Try::Tiny -->
 <!-- horizontal -->
 <line x1="253.4" y1="730.2" x2="287.96" y2="730.2" stroke="#000000" />

 <!-- horizontal -->
 <line x1="176.6" y1="730.2" x2="215" y2="730.2" stroke="#000000" />

 <!-- horizontal -->
 <line x1="42.6" y1="730.2" x2="176.6" y2="730.2" stroke="#000000" />

 <!-- north/east corner -->
 <g stroke="#000000">
  <line x1="29.8" y1="712.2" x2="29.8" y2="730.7" />
  <line x1="29.3" y1="730.2" x2="42.6" y2="730.2" />
 </g>

 <!-- vertical -->
 <line x1="29.8" y1="648.2" x2="29.8" y2="712.2" stroke="#000000" />

 <!-- vertical -->
 <line x1="29.8" y1="603.4" x2="29.8" y2="648.2" stroke="#000000" />

 <!-- south/east corner -->
 <g stroke="#000000">
  <line x1="29.8" y1="570.9" x2="29.8" y2="603.4" />
  <line x1="29.3" y1="571.4" x2="42.6" y2="571.4" />
 </g>

 <!-- horizontal -->
 <line x1="42.6" y1="571.4" x2="176.6" y2="571.4" stroke="#000000" />

 <!-- horizontal -->
 <line x1="176.6" y1="571.4" x2="215" y2="571.4" stroke="#000000" />

 <!-- horizontal -->
 <line x1="215" y1="571.4" x2="253.4" y2="571.4" stroke="#000000" />

 <!-- south/west corner -->
 <g stroke="#000000">
  <line x1="426.3" y1="570.9" x2="426.3" y2="596" />
  <line x1="291.8" y1="571.4" x2="426.8" y2="571.4" />
 </g>
 <use stroke="#000000" xlink:href="#ah" transform="translate(426.3 597)rotate(90)"/>
</g>

<g id="20" class="edge">
 <!-- from Contacts.pm to Localization -->
 <!-- south/west corner -->
 <g stroke="#000000">
  <line x1="426.3" y1="679.7" x2="426.3" y2="705.8" />
  <line x1="291.8" y1="680.2" x2="426.8" y2="680.2" />
 </g>

 <!-- north/east corner -->
 <g stroke="#000000">
  <line x1="272.6" y1="648.2" x2="272.6" y2="680.7" />
  <line x1="272.1" y1="680.2" x2="291.8" y2="680.2" />
 </g>

 <!-- vertical -->
 <line x1="272.6" y1="603.4" x2="272.6" y2="648.2" stroke="#000000" />

 <!-- crossing -->
 <g stroke="#000000">
  <line x1="253.4" y1="571.4" x2="291.8" y2="571.4" />
  <line x1="272.6" y1="539.4" x2="272.6" y2="603.4" stroke="#000000" stroke-dasharray="1 0"/>
 </g>

 <!-- vertical -->
 <line x1="272.6" y1="494.6" x2="272.6" y2="539.4" stroke="#000000" />

 <!-- south/east corner -->
 <g stroke="#000000">
  <line x1="272.6" y1="471.7" x2="272.6" y2="494.6" />
  <line x1="272.1" y1="472.2" x2="291.8" y2="472.2" />
 </g>

 <!-- horizontal -->
 <line x1="291.8" y1="472.2" x2="560.8" y2="472.2" stroke="#000000" />

 <!-- horizontal -->
 <line x1="560.8" y1="472.2" x2="631.2" y2="472.2" stroke="#000000" />

 <!-- horizontal -->
 <line x1="631.2" y1="472.2" x2="914.2" y2="472.2" stroke="#000000" />

 <!-- horizontal -->
 <line x1="914.2" y1="472.2" x2="976.56" y2="472.2" stroke="#000000" />
 <use stroke="#000000" xlink:href="#ah" x="977.56" y="472.2"/>
</g>

<g id="21" class="edge">
 <!-- from DateTimeFactory.pm to Date::Parse -->
 <!-- horizontal -->
 <line x1="921.24" y1="796.2" x2="976.56" y2="796.2" stroke="#000000" />
 <use stroke="#000000" xlink:href="#ah" x="977.56" y="796.2"/>
</g>

<g id="24" class="edge">
 <!-- from DateTimeFactory.pm to DateTime::Span -->
 <!-- horizontal -->
 <line x1="568.84" y1="885.8" x2="624.16" y2="885.8" stroke="#000000" />
 <use stroke="#000000" xlink:href="#ah" transform="translate(567.84 885.8)rotate(180)"/>
</g>

<g id="26" class="edge">
 <!-- from DateTimeFactory.pm to DateTime::SpanSet -->
 <!-- horizontal -->
 <line x1="921.24" y1="841" x2="984.6" y2="841" stroke="#000000" />

 <!-- horizontal -->
 <line x1="984.6" y1="841" x2="1099.6" y2="841" stroke="#000000" />

 <!-- horizontal -->
 <line x1="1099.6" y1="841" x2="1170" y2="841" stroke="#000000" />

 <!-- north/west corner -->
 <g stroke="#000000">
  <line x1="1281.5" y1="824.08" x2="1281.5" y2="841.5" />
  <line x1="1170" y1="841" x2="1282" y2="841" />
 </g>
 <use stroke="#000000" xlink:href="#ah" transform="translate(1281.5 823.08)rotate(-90)"/>
</g>

<g id="28" class="edge">
 <!-- from DateTimeFactory.pm to DateTime -->
 <!-- horizontal -->
 <line x1="921.24" y1="885.8" x2="976.56" y2="885.8" stroke="#000000" />
 <use stroke="#000000" xlink:href="#ah" x="977.56" y="885.8"/>
</g>

<g id="3" class="edge">
 <!-- from BookingBot.pm to Telegram -->
 <!-- horizontal -->
 <line x1="568.84" y1="209.8" x2="624.16" y2="209.8" stroke="#000000" />
 <use stroke="#000000" xlink:href="#ah" transform="translate(567.84 209.8)rotate(180)"/>
</g>

<g id="30" class="edge">
 <!-- from DateTimeFactory.pm to DateTime::Duration -->
 <!-- vertical -->
 <line x1="772.7" y1="914.6" x2="772.7" y2="964.8" stroke="#000000" />
 <use stroke="#000000" xlink:href="#ah" transform="translate(772.7 965.8)rotate(90)"/>
</g>

<g id="32" class="edge">
 <!-- from DateTimeFactory.pm to DateTime::Format::RFC3339 -->
 <!-- horizontal -->
 <line x1="568.84" y1="796.2" x2="624.16" y2="796.2" stroke="#000000" />
 <use stroke="#000000" xlink:href="#ah" transform="translate(567.84 796.2)rotate(180)"/>
</g>

<g id="34" class="edge">
 <!-- from FSMFactory.pm to DateTimeFactory -->
 <!-- vertical -->
 <line x1="1881.7" y1="348.4" x2="1881.7" y2="398.6" stroke="#000000" />
 <use stroke="#000000" xlink:href="#ah" transform="translate(1881.7 347.4)rotate(-90)"/>
</g>

<g id="37" class="edge">
 <!-- from FSMFactory.pm to UserFSM -->
 <!-- vertical -->
 <line x1="1661.8" y1="348.4" x2="1661.8" y2="398.6" stroke="#000000" />
 <use stroke="#000000" xlink:href="#ah" transform="translate(1661.8 347.4)rotate(-90)"/>
</g>

<g id="39" class="edge">
 <!-- from FSMFactory.pm to InstructorFSM -->
 <!-- horizontal -->
 <line x1="1972.24" y1="517" x2="2027.56" y2="517" stroke="#000000" />
 <use stroke="#000000" xlink:href="#ah" x="2028.56" y="517"/>
</g>

<g id="41" class="edge">
 <!-- from FSMFactory.pm to Localization -->
 <!-- horizontal -->
 <line x1="1557.4" y1="427.4" x2="1591.96" y2="427.4" stroke="#000000" />

 <!-- horizontal -->
 <line x1="1463.4" y1="427.4" x2="1557.4" y2="427.4" stroke="#000000" />
</g>

<g id="42" class="edge">
 <!-- from FSMFactory.pm to Instructors -->
 <!-- vertical -->
 <line x1="1661.8" y1="545.8" x2="1661.8" y2="596" stroke="#000000" />
 <use stroke="#000000" xlink:href="#ah" transform="translate(1661.8 597)rotate(90)"/>
</g>

<g id="44" class="edge">
 <!-- from FSMFactory.pm to Resources -->
 <!-- vertical -->
 <line x1="1881.7" y1="545.8" x2="1881.7" y2="596" stroke="#000000" />
 <use stroke="#000000" xlink:href="#ah" transform="translate(1881.7 597)rotate(90)"/>
</g>

<g id="46" class="edge">
 <!-- from FSMFactory.pm to Contacts -->
 <!-- horizontal -->
 <line x1="1972.24" y1="427.4" x2="2027.56" y2="427.4" stroke="#000000" />
 <use stroke="#000000" xlink:href="#ah" x="2028.56" y="427.4"/>
</g>

<g id="48" class="edge">
 <!-- from Google.pm to DateTimeFactory -->
 <!-- horizontal -->
 <line x1="1973.24" y1="209.8" x2="2028.56" y2="209.8" stroke="#000000" />
 <use stroke="#000000" xlink:href="#ah" transform="translate(1972.24 209.8)rotate(180)"/>
</g>

<g id="5" class="edge">
 <!-- from BookingBot.pm to Log -->
 <!-- horizontal -->
 <line x1="1106.64" y1="174.6" x2="1170" y2="174.6" stroke="#000000" />

 <!-- horizontal -->
 <line x1="1170" y1="174.6" x2="1393" y2="174.6" stroke="#000000" />

 <!-- south/west corner -->
 <g stroke="#000000">
  <line x1="1428.2" y1="174.1" x2="1428.2" y2="187.4" />
  <line x1="1393" y1="174.6" x2="1428.7" y2="174.6" />
 </g>

 <!-- crossing -->
 <g stroke="#000000">
  <line x1="1401.04" y1="209.8" x2="1463.4" y2="209.8" />
  <line x1="1428.2" y1="187.4" x2="1428.2" y2="232.2" stroke="#000000" stroke-dasharray="1 0"/>
 </g>
 <use stroke="#000000" xlink:href="#ah" transform="translate(1400.04 209.8)rotate(180)"/>

 <!-- vertical -->
 <line x1="1428.2" y1="232.2" x2="1428.2" y2="296.2" stroke="#000000" />

 <!-- vertical -->
 <line x1="1428.2" y1="296.2" x2="1428.2" y2="341" stroke="#000000" />

 <!-- vertical -->
 <line x1="1428.2" y1="341" x2="1428.2" y2="405" stroke="#000000" />

 <!-- crossing -->
 <g stroke="#000000">
  <line x1="1401.04" y1="427.4" x2="1463.4" y2="427.4" />
  <line x1="1428.2" y1="405" x2="1428.2" y2="449.8" stroke="#000000" stroke-dasharray="1 0"/>
 </g>
 <use stroke="#000000" xlink:href="#ah" transform="translate(1400.04 427.4)rotate(180)"/>

 <!-- crossing -->
 <g stroke="#000000">
  <line x1="1401.04" y1="472.2" x2="1463.4" y2="472.2" />
  <line x1="1428.2" y1="449.8" x2="1428.2" y2="494.6" stroke="#000000" stroke-dasharray="1 0"/>
 </g>
 <use stroke="#000000" xlink:href="#ah" transform="translate(1400.04 472.2)rotate(180)"/>

 <!-- crossing -->
 <g stroke="#000000">
  <line x1="1401.04" y1="517" x2="1463.4" y2="517" />
  <line x1="1428.2" y1="494.6" x2="1428.2" y2="539.4" stroke="#000000" stroke-dasharray="1 0"/>
 </g>
 <use stroke="#000000" xlink:href="#ah" transform="translate(1400.04 517)rotate(180)"/>

 <!-- vertical -->
 <line x1="1428.2" y1="539.4" x2="1428.2" y2="603.4" stroke="#000000" />

 <!-- vertical -->
 <line x1="1428.2" y1="603.4" x2="1428.2" y2="648.2" stroke="#000000" />

 <!-- north/west corner -->
 <g stroke="#000000">
  <line x1="1428.2" y1="648.2" x2="1428.2" y2="680.7" />
  <line x1="1393" y1="680.2" x2="1428.7" y2="680.2" />
 </g>

 <!-- horizontal -->
 <line x1="1170" y1="680.2" x2="1393" y2="680.2" stroke="#000000" />

 <!-- horizontal -->
 <line x1="1099.6" y1="680.2" x2="1170" y2="680.2" stroke="#000000" />

 <!-- north/east corner -->
 <g stroke="#000000">
  <line x1="1042.1" y1="655.6" x2="1042.1" y2="680.7" />
  <line x1="1041.6" y1="680.2" x2="1099.6" y2="680.2" />
 </g>
 <use stroke="#000000" xlink:href="#ah" transform="translate(1042.1 654.6)rotate(-90)"/>
</g>

<g id="50" class="edge">
 <!-- from Google.pm to API::Google::GCal -->
 <!-- horizontal -->
 <line x1="2214.64" y1="209.8" x2="2269.96" y2="209.8" stroke="#000000" />
 <use stroke="#000000" xlink:href="#ah" x="2270.96" y="209.8"/>
</g>

<g id="52" class="edge">
 <!-- from InstructorFSM.pm to FSMUtils -->
 <!-- south/east corner -->
 <g stroke="#000000">
  <line x1="772.7" y1="1030.1" x2="772.7" y2="1046.6" />
  <line x1="772.2" y1="1030.6" x2="914.2" y2="1030.6" />
 </g>

 <!-- horizontal -->
 <line x1="914.2" y1="1030.6" x2="984.6" y2="1030.6" stroke="#000000" />

 <!-- horizontal -->
 <line x1="984.6" y1="1030.6" x2="1099.6" y2="1030.6" stroke="#000000" />

 <!-- horizontal -->
 <line x1="1099.6" y1="1030.6" x2="1170" y2="1030.6" stroke="#000000" />

 <!-- horizontal -->
 <line x1="1170" y1="1030.6" x2="1393" y2="1030.6" stroke="#000000" />

 <!-- horizontal -->
 <line x1="1393" y1="1030.6" x2="1463.4" y2="1030.6" stroke="#000000" />

 <!-- south/west corner -->
 <g stroke="#000000">
  <line x1="1510.4" y1="1030.1" x2="1510.4" y2="1047.52" />
  <line x1="1463.4" y1="1030.6" x2="1510.9" y2="1030.6" />
 </g>
 <use stroke="#000000" xlink:href="#ah" transform="translate(1510.4 1048.52)rotate(90)"/>
</g>

<g id="55" class="edge">
 <!-- from InstructorFSM.pm to FSA::Rules -->
 <!-- horizontal -->
 <line x1="921.24" y1="1075.4" x2="976.56" y2="1075.4" stroke="#000000" />
 <use stroke="#000000" xlink:href="#ah" x="977.56" y="1075.4"/>
</g>

<g id="57" class="edge">
 <!-- from Instructor.pm to Localization -->
 <!-- horizontal -->
 <line x1="180.44" y1="625.8" x2="215" y2="625.8" stroke="#000000" />

 <!-- south/west corner -->
 <g stroke="#000000">
  <line x1="234.2" y1="625.3" x2="234.2" y2="648.2" />
  <line x1="215" y1="625.8" x2="234.7" y2="625.8" />
 </g>

 <!-- vertical -->
 <line x1="234.2" y1="648.2" x2="234.2" y2="712.2" stroke="#000000" />

 <!-- crossing -->
 <g stroke="#000000">
  <line x1="215" y1="730.2" x2="253.4" y2="730.2" />
  <line x1="234.2" y1="712.2" x2="234.2" y2="748.2" stroke="#000000" stroke-dasharray="1 0"/>
 </g>

 <!-- north/east corner -->
 <g stroke="#000000">
  <line x1="234.2" y1="748.2" x2="234.2" y2="761.5" />
  <line x1="233.7" y1="761" x2="253.4" y2="761" />
 </g>

 <!-- horizontal -->
 <line x1="253.4" y1="761" x2="291.8" y2="761" stroke="#000000" />

 <!-- horizontal -->
 <line x1="291.8" y1="761" x2="560.8" y2="761" stroke="#000000" />

 <!-- horizontal -->
 <line x1="560.8" y1="761" x2="631.2" y2="761" stroke="#000000" />

 <!-- horizontal -->
 <line x1="631.2" y1="761" x2="914.2" y2="761" stroke="#000000" />

 <!-- horizontal -->
 <line x1="914.2" y1="761" x2="984.6" y2="761" stroke="#000000" />

 <!-- horizontal -->
 <line x1="984.6" y1="761" x2="1099.6" y2="761" stroke="#000000" />

 <!-- horizontal -->
 <line x1="1099.6" y1="761" x2="1170" y2="761" stroke="#000000" />

 <!-- horizontal -->
 <line x1="1170" y1="761" x2="1393" y2="761" stroke="#000000" />

 <!-- horizontal -->
 <line x1="1393" y1="761" x2="1463.4" y2="761" stroke="#000000" />

 <!-- north/west corner -->
 <g stroke="#000000">
  <line x1="1510.4" y1="748.2" x2="1510.4" y2="761.5" />
  <line x1="1463.4" y1="761" x2="1510.9" y2="761" />
 </g>

 <!-- vertical -->
 <line x1="1510.4" y1="712.2" x2="1510.4" y2="748.2" stroke="#000000" />

 <!-- vertical -->
 <line x1="1510.4" y1="648.2" x2="1510.4" y2="712.2" stroke="#000000" />

 <!-- vertical -->
 <line x1="1510.4" y1="603.4" x2="1510.4" y2="648.2" stroke="#000000" />

 <!-- vertical -->
 <line x1="1510.4" y1="539.4" x2="1510.4" y2="603.4" stroke="#000000" />

 <!-- south/west corner -->
 <g stroke="#000000">
  <line x1="1510.4" y1="516.5" x2="1510.4" y2="539.4" />
  <line x1="1463.4" y1="517" x2="1510.9" y2="517" />
 </g>
</g>

<g id="60" class="edge">
 <!-- from Instructors.pm to Instructor -->
 <!-- vertical -->
 <line x1="772.7" y1="1165.8" x2="772.7" y2="1216" stroke="#000000" />
 <use stroke="#000000" xlink:href="#ah" transform="translate(772.7 1217)rotate(90)"/>
</g>

<g id="63" class="edge">
 <!-- from Instructors.pm to Localization -->
 <!-- horizontal -->
 <line x1="921.24" y1="1141.4" x2="984.6" y2="1141.4" stroke="#000000" />

 <!-- horizontal -->
 <line x1="984.6" y1="1141.4" x2="1099.6" y2="1141.4" stroke="#000000" />

 <!-- horizontal -->
 <line x1="1099.6" y1="1141.4" x2="1170" y2="1141.4" stroke="#000000" />

 <!-- horizontal -->
 <line x1="1170" y1="1141.4" x2="1393" y2="1141.4" stroke="#000000" />

 <!-- horizontal -->
 <line x1="1393" y1="1141.4" x2="1463.4" y2="1141.4" stroke="#000000" />

 <!-- horizontal -->
 <line x1="1463.4" y1="1141.4" x2="1557.4" y2="1141.4" stroke="#000000" />

 <!-- north/west corner -->
 <g stroke="#000000">
  <line x1="1576.6" y1="1123.4" x2="1576.6" y2="1141.9" />
  <line x1="1557.4" y1="1141.4" x2="1577.1" y2="1141.4" />
 </g>

 <!-- vertical -->
 <line x1="1576.6" y1="1097.8" x2="1576.6" y2="1123.4" stroke="#000000" />

 <!-- vertical -->
 <line x1="1576.6" y1="1053" x2="1576.6" y2="1097.8" stroke="#000000" />

 <!-- vertical -->
 <line x1="1576.6" y1="1008.2" x2="1576.6" y2="1053" stroke="#000000" />

 <!-- vertical -->
 <line x1="1576.6" y1="972.2" x2="1576.6" y2="1008.2" stroke="#000000" />

 <!-- vertical -->
 <line x1="1576.6" y1="908.2" x2="1576.6" y2="972.2" stroke="#000000" />

 <!-- vertical -->
 <line x1="1576.6" y1="863.4" x2="1576.6" y2="908.2" stroke="#000000" />

 <!-- vertical -->
 <line x1="1576.6" y1="818.6" x2="1576.6" y2="863.4" stroke="#000000" />

 <!-- vertical -->
 <line x1="1576.6" y1="773.8" x2="1576.6" y2="818.6" stroke="#000000" />

 <!-- vertical -->
 <line x1="1576.6" y1="748.2" x2="1576.6" y2="773.8" stroke="#000000" />

 <!-- vertical -->
 <line x1="1576.6" y1="712.2" x2="1576.6" y2="748.2" stroke="#000000" />

 <!-- vertical -->
 <line x1="1576.6" y1="648.2" x2="1576.6" y2="712.2" stroke="#000000" />

 <!-- vertical -->
 <line x1="1576.6" y1="603.4" x2="1576.6" y2="648.2" stroke="#000000" />

 <!-- vertical -->
 <line x1="1576.6" y1="539.4" x2="1576.6" y2="603.4" stroke="#000000" />

 <!-- vertical -->
 <line x1="1576.6" y1="494.6" x2="1576.6" y2="539.4" stroke="#000000" />

 <!-- south/west corner -->
 <g stroke="#000000">
  <line x1="1576.6" y1="471.7" x2="1576.6" y2="494.6" />
  <line x1="1557.4" y1="472.2" x2="1577.1" y2="472.2" />
 </g>

 <!-- horizontal -->
 <line x1="1463.4" y1="472.2" x2="1557.4" y2="472.2" stroke="#000000" />
</g>

<g id="64" class="edge">
 <!-- from Log.pm to Log::Any::For::Std -->
 <!-- north/east corner -->
 <g stroke="#000000">
  <line x1="2121.6" y1="347.4" x2="2121.6" y2="373.5" />
  <line x1="2121.1" y1="373" x2="2207.6" y2="373" />
 </g>

 <!-- horizontal -->
 <line x1="2207.6" y1="373" x2="2278" y2="373" stroke="#000000" />

 <!-- horizontal -->
 <line x1="2278" y1="373" x2="2443" y2="373" stroke="#000000" />

 <!-- horizontal -->
 <line x1="2443" y1="373" x2="2481.4" y2="373" stroke="#000000" />

 <!-- horizontal -->
 <line x1="2481.4" y1="373" x2="2652.4" y2="373" stroke="#000000" />

 <!-- north/west corner -->
 <g stroke="#000000">
  <line x1="2665.2" y1="341" x2="2665.2" y2="373.5" />
  <line x1="2652.4" y1="373" x2="2665.7" y2="373" />
 </g>

 <!-- vertical -->
 <line x1="2665.2" y1="296.2" x2="2665.2" y2="341" stroke="#000000" />

 <!-- vertical -->
 <line x1="2665.2" y1="232.2" x2="2665.2" y2="296.2" stroke="#000000" />

 <!-- vertical -->
 <line x1="2665.2" y1="187.4" x2="2665.2" y2="232.2" stroke="#000000" />

 <!-- vertical -->
 <line x1="2665.2" y1="161.8" x2="2665.2" y2="187.4" stroke="#000000" />

 <!-- south/west corner -->
 <g stroke="#000000">
  <line x1="2665.2" y1="138.9" x2="2665.2" y2="161.8" />
  <line x1="2652.4" y1="139.4" x2="2665.7" y2="139.4" />
 </g>

 <!-- horizontal -->
 <line x1="2481.4" y1="139.4" x2="2652.4" y2="139.4" stroke="#000000" />

 <!-- horizontal -->
 <line x1="2443" y1="139.4" x2="2481.4" y2="139.4" stroke="#000000" />

 <!-- horizontal -->
 <line x1="2278" y1="139.4" x2="2443" y2="139.4" stroke="#000000" />

 <!-- horizontal -->
 <line x1="2215.64" y1="139.4" x2="2278" y2="139.4" stroke="#000000" />
 <use stroke="#000000" xlink:href="#ah" transform="translate(2214.64 139.4)rotate(180)"/>
</g>

<g id="67" class="edge">
 <!-- from Log.pm to DateTimeFactory -->
 <!-- horizontal -->
 <line x1="1973.24" y1="318.6" x2="2028.56" y2="318.6" stroke="#000000" />
 <use stroke="#000000" xlink:href="#ah" transform="translate(1972.24 318.6)rotate(180)"/>
</g>

<g id="68" class="edge">
 <!-- from Log.pm to Log::Any -->
 <!-- horizontal -->
 <line x1="2214.64" y1="318.6" x2="2269.96" y2="318.6" stroke="#000000" />
 <use stroke="#000000" xlink:href="#ah" x="2270.96" y="318.6"/>
</g>

<g id="7" class="edge">
 <!-- from BookingBot.pm to Google -->
 <!-- horizontal -->
 <line x1="1106.64" y1="209.8" x2="1161.96" y2="209.8" stroke="#000000" />
 <use stroke="#000000" xlink:href="#ah" x="1162.96" y="209.8"/>
</g>

<g id="70" class="edge">
 <!-- from Log.pm to Log::Any::Adapter -->
 <!-- south/east corner -->
 <g stroke="#000000">
  <line x1="2121.6" y1="263.7" x2="2121.6" y2="289.8" />
  <line x1="2121.1" y1="264.2" x2="2207.6" y2="264.2" />
 </g>

 <!-- horizontal -->
 <line x1="2207.6" y1="264.2" x2="2278" y2="264.2" stroke="#000000" />

 <!-- horizontal -->
 <line x1="2278" y1="264.2" x2="2443" y2="264.2" stroke="#000000" />

 <!-- horizontal -->
 <line x1="2443" y1="264.2" x2="2481.4" y2="264.2" stroke="#000000" />

 <!-- south/west corner -->
 <g stroke="#000000">
  <line x1="2566.9" y1="263.7" x2="2566.9" y2="288.8" />
  <line x1="2481.4" y1="264.2" x2="2567.4" y2="264.2" />
 </g>
 <use stroke="#000000" xlink:href="#ah" transform="translate(2566.9 289.8)rotate(90)"/>
</g>

<g id="72" class="edge">
 <!-- from RecordTimeParser.pm to Localization -->
 <!-- horizontal -->
 <line x1="921.24" y1="427.4" x2="976.56" y2="427.4" stroke="#000000" />
 <use stroke="#000000" xlink:href="#ah" x="977.56" y="427.4"/>
</g>

<g id="74" class="edge">
 <!-- from Resource.pm to DateTimeFactory -->
 <!-- horizontal -->
 <line x1="1734.84" y1="209.8" x2="1790.16" y2="209.8" stroke="#000000" />
 <use stroke="#000000" xlink:href="#ah" x="1791.16" y="209.8"/>
</g>

<g id="76" class="edge">
 <!-- from Resource.pm to Google -->
 <!-- horizontal -->
 <line x1="1557.4" y1="209.8" x2="1591.96" y2="209.8" stroke="#000000" />

 <!-- horizontal -->
 <line x1="1463.4" y1="209.8" x2="1557.4" y2="209.8" stroke="#000000" />
</g>

<g id="77" class="edge">
 <!-- from Resources.pm to Resource -->
 <!-- horizontal -->
 <line x1="921.24" y1="1281.8" x2="976.56" y2="1281.8" stroke="#000000" />
 <use stroke="#000000" xlink:href="#ah" x="977.56" y="1281.8"/>
</g>

<g id="80" class="edge">
 <!-- from Telegram.pm to Serikoff::Telegram::Keyboards -->
 <!-- vertical -->
 <line x1="772.7" y1="654.6" x2="772.7" y2="704.8" stroke="#000000" />
 <use stroke="#000000" xlink:href="#ah" transform="translate(772.7 705.8)rotate(90)"/>
</g>

<g id="83" class="edge">
 <!-- from Telegram.pm to Serikoff::Telegram::Polling -->
 <!-- horizontal -->
 <line x1="568.84" y1="517" x2="624.16" y2="517" stroke="#000000" />
 <use stroke="#000000" xlink:href="#ah" transform="translate(567.84 517)rotate(180)"/>
</g>

<g id="85" class="edge">
 <!-- from Telegram.pm to Try::Tiny -->
 <!-- horizontal -->
 <line x1="568.84" y1="625.8" x2="624.16" y2="625.8" stroke="#000000" />
 <use stroke="#000000" xlink:href="#ah" transform="translate(567.84 625.8)rotate(180)"/>
</g>

<g id="86" class="edge">
 <!-- from Telegram.pm to Log -->
 <!-- horizontal -->
 <line x1="921.24" y1="625.8" x2="976.56" y2="625.8" stroke="#000000" />
 <use stroke="#000000" xlink:href="#ah" x="977.56" y="625.8"/>
</g>

<g id="87" class="edge">
 <!-- from Telegram.pm to WWW::Telegram::BotAPI -->
 <!-- horizontal -->
 <line x1="921.24" y1="571.4" x2="984.6" y2="571.4" stroke="#000000" />

 <!-- horizontal -->
 <line x1="984.6" y1="571.4" x2="1099.6" y2="571.4" stroke="#000000" />

 <!-- horizontal -->
 <line x1="1099.6" y1="571.4" x2="1170" y2="571.4" stroke="#000000" />

 <!-- south/west corner -->
 <g stroke="#000000">
  <line x1="1281.5" y1="570.9" x2="1281.5" y2="596" />
  <line x1="1170" y1="571.4" x2="1282" y2="571.4" />
 </g>
 <use stroke="#000000" xlink:href="#ah" transform="translate(1281.5 597)rotate(90)"/>
</g>

<g id="89" class="edge">
 <!-- from UserFSM.pm to FSMUtils -->
 <!-- horizontal -->
 <line x1="1400.04" y1="1075.4" x2="1455.36" y2="1075.4" stroke="#000000" />
 <use stroke="#000000" xlink:href="#ah" x="1456.36" y="1075.4"/>
</g>

<g id="9" class="edge">
 <!-- from BookingBot.pm to Mojolicious::Lite -->
 <!-- horizontal -->
 <line x1="568.84" y1="139.4" x2="624.16" y2="139.4" stroke="#000000" />
 <use stroke="#000000" xlink:href="#ah" transform="translate(567.84 139.4)rotate(180)"/>
</g>

<g id="91" class="edge">
 <!-- from UserFSM.pm to FSA::Rules -->
 <!-- horizontal -->
 <line x1="1107.64" y1="1075.4" x2="1162.96" y2="1075.4" stroke="#000000" />
 <use stroke="#000000" xlink:href="#ah" transform="translate(1106.64 1075.4)rotate(180)"/>
</g>

<g id="1" class="node">
 <!-- BookingBot.pm, rect -->
 <rect fill="#ffffff" height="114.2" stroke="#000000" width="467.4" x="631.7" y="117.5" />
 <text x="865" y="180" style="font-family:serif" fill="#000000" text-anchor="middle">BookingBot.pm</text>
</g>

<g id="2" class="node">
 <!-- Localization, rect -->
 <rect fill="#ffffff" height="133.4" stroke="#000000" width="407.4" x="985.1" y="405.5" />
 <text x="1188" y="478" style="font-family:serif" fill="#000000" text-anchor="middle">Localization</text>
</g>

<g id="4" class="node">
 <!-- Telegram, rect -->
 <rect fill="#ffffff" height="43.8" stroke="#000000" width="268" x="292.3" y="187.9" />
 <text x="426" y="215" style="font-family:serif" fill="#000000" text-anchor="middle">Telegram</text>
</g>

<g id="6" class="node">
 <!-- Log, rect -->
 <rect fill="#ffffff" height="43.8" stroke="#000000" width="114" x="985.1" y="603.9" />
 <text x="1042" y="631" style="font-family:serif" fill="#000000" text-anchor="middle">Log</text>
</g>

<g id="8" class="node">
 <!-- Google, rect -->
 <rect fill="#ffffff" height="43.8" stroke="#000000" width="222" x="1170.5" y="187.9" />
 <text x="1281" y="215" style="font-family:serif" fill="#000000" text-anchor="middle">Google</text>
</g>

<g id="10" class="node">
 <!-- Mojolicious::Lite, rect -->
 <rect fill="#ffffff" height="43.8" stroke="#000000" width="268" x="292.3" y="117.5" />
 <text x="426" y="145" style="font-family:serif" fill="#000000" text-anchor="middle">Mojolicious::Lite</text>
</g>

<g id="12" class="node">
 <!-- FSMFactory, rect -->
 <rect fill="#ffffff" height="43.8" stroke="#000000" width="222" x="1170.5" y="117.5" />
 <text x="1281" y="145" style="font-family:serif" fill="#000000" text-anchor="middle">FSMFactory</text>
</g>

<g id="14" class="node">
 <!-- common::sense, rect -->
 <rect fill="#ffffff" height="35" stroke="#000000" width="282" x="631.7" y="17.5" />
 <text x="772" y="41" style="font-family:serif" fill="#000000" text-anchor="middle">common::sense</text>
</g>

<g id="16" class="node">
 <!-- Groups, rect -->
 <rect fill="#ffffff" height="43.8" stroke="#000000" width="282" x="631.7" y="296.7" />
 <text x="772" y="324" style="font-family:serif" fill="#000000" text-anchor="middle">Groups</text>
</g>

<g id="18" class="node">
 <!-- Contacts.pm, rect -->
 <rect fill="#ffffff" height="35" stroke="#000000" width="268" x="292.3" y="712.7" />
 <text x="426" y="736" style="font-family:serif" fill="#000000" text-anchor="middle">Contacts.pm</text>
</g>

<g id="19" class="node">
 <!-- Try::Tiny, rect -->
 <rect fill="#ffffff" height="43.8" stroke="#000000" width="268" x="292.3" y="603.9" />
 <text x="426" y="631" style="font-family:serif" fill="#000000" text-anchor="middle">Try::Tiny</text>
</g>

<g id="22" class="node">
 <!-- DateTimeFactory.pm, rect -->
 <rect fill="#ffffff" height="133.4" stroke="#000000" width="282" x="631.7" y="774.3" />
 <text x="772" y="847" style="font-family:serif" fill="#000000" text-anchor="middle">DateTimeFactory.pm</text>
</g>

<g id="23" class="node">
 <!-- Date::Parse, rect -->
 <rect fill="#ffffff" height="43.8" stroke="#000000" width="114" x="985.1" y="774.3" />
 <text x="1042" y="802" style="font-family:serif" fill="#000000" text-anchor="middle">Date::Parse</text>
</g>

<g id="25" class="node">
 <!-- DateTime::Span, rect -->
 <rect fill="#ffffff" height="43.8" stroke="#000000" width="268" x="292.3" y="863.9" />
 <text x="426" y="891" style="font-family:serif" fill="#000000" text-anchor="middle">DateTime::Span</text>
</g>

<g id="27" class="node">
 <!-- DateTime::SpanSet, rect -->
 <rect fill="#ffffff" height="43.8" stroke="#000000" width="222" x="1170.5" y="774.3" />
 <text x="1281" y="802" style="font-family:serif" fill="#000000" text-anchor="middle">DateTime::SpanSet</text>
</g>

<g id="29" class="node">
 <!-- DateTime, rect -->
 <rect fill="#ffffff" height="43.8" stroke="#000000" width="114" x="985.1" y="863.9" />
 <text x="1042" y="891" style="font-family:serif" fill="#000000" text-anchor="middle">DateTime</text>
</g>

<g id="31" class="node">
 <!-- DateTime::Duration, rect -->
 <rect fill="#ffffff" height="35" stroke="#000000" width="282" x="631.7" y="972.7" />
 <text x="772" y="996" style="font-family:serif" fill="#000000" text-anchor="middle">DateTime::Duration</text>
</g>

<g id="33" class="node">
 <!-- DateTime::Format::RFC3339, rect -->
 <rect fill="#ffffff" height="43.8" stroke="#000000" width="268" x="292.3" y="774.3" />
 <text x="426" y="802" style="font-family:serif" fill="#000000" text-anchor="middle">DateTime::Format::RFC3339</text>
</g>

<g id="35" class="node">
 <!-- FSMFactory.pm, rect -->
 <rect fill="#ffffff" height="133.4" stroke="#000000" width="368.4" x="1596.3" y="405.5" />
 <text x="1780" y="478" style="font-family:serif" fill="#000000" text-anchor="middle">FSMFactory.pm</text>
</g>

<g id="36" class="node">
 <!-- DateTimeFactory, rect -->
 <rect fill="#ffffff" height="152.6" stroke="#000000" width="166" x="1798.7" y="187.9" />
 <text x="1881" y="270" style="font-family:serif" fill="#000000" text-anchor="middle">DateTimeFactory</text>
</g>

<g id="38" class="node">
 <!-- UserFSM, rect -->
 <rect fill="#ffffff" height="43.8" stroke="#000000" width="131" x="1596.3" y="296.7" />
 <text x="1661" y="324" style="font-family:serif" fill="#000000" text-anchor="middle">UserFSM</text>
</g>

<g id="40" class="node">
 <!-- InstructorFSM, rect -->
 <rect fill="#ffffff" height="43.8" stroke="#000000" width="171" x="2036.1" y="495.1" />
 <text x="2121" y="523" style="font-family:serif" fill="#000000" text-anchor="middle">InstructorFSM</text>
</g>

<g id="43" class="node">
 <!-- Instructors, rect -->
 <rect fill="#ffffff" height="43.8" stroke="#000000" width="131" x="1596.3" y="603.9" />
 <text x="1661" y="631" style="font-family:serif" fill="#000000" text-anchor="middle">Instructors</text>
</g>

<g id="45" class="node">
 <!-- Resources, rect -->
 <rect fill="#ffffff" height="43.8" stroke="#000000" width="166" x="1798.7" y="603.9" />
 <text x="1881" y="631" style="font-family:serif" fill="#000000" text-anchor="middle">Resources</text>
</g>

<g id="47" class="node">
 <!-- Contacts, rect -->
 <rect fill="#ffffff" height="43.8" stroke="#000000" width="171" x="2036.1" y="405.5" />
 <text x="2121" y="433" style="font-family:serif" fill="#000000" text-anchor="middle">Contacts</text>
</g>

<g id="49" class="node">
 <!-- Google.pm, rect -->
 <rect fill="#ffffff" height="43.8" stroke="#000000" width="171" x="2036.1" y="187.9" />
 <text x="2121" y="215" style="font-family:serif" fill="#000000" text-anchor="middle">Google.pm</text>
</g>

<g id="51" class="node">
 <!-- API::Google::GCal, rect -->
 <rect fill="#ffffff" height="43.8" stroke="#000000" width="164" x="2278.5" y="187.9" />
 <text x="2360" y="215" style="font-family:serif" fill="#000000" text-anchor="middle">API::Google::GCal</text>
</g>

<g id="53" class="node">
 <!-- InstructorFSM.pm, rect -->
 <rect fill="#ffffff" height="43.8" stroke="#000000" width="282" x="631.7" y="1053.5" />
 <text x="772" y="1081" style="font-family:serif" fill="#000000" text-anchor="middle">InstructorFSM.pm</text>
</g>

<g id="54" class="node">
 <!-- FSMUtils, rect -->
 <rect fill="#ffffff" height="43.8" stroke="#000000" width="93" x="1463.9" y="1053.5" />
 <text x="1510" y="1081" style="font-family:serif" fill="#000000" text-anchor="middle">FSMUtils</text>
</g>

<g id="56" class="node">
 <!-- FSA::Rules, rect -->
 <rect fill="#ffffff" height="43.8" stroke="#000000" width="114" x="985.1" y="1053.5" />
 <text x="1042" y="1081" style="font-family:serif" fill="#000000" text-anchor="middle">FSA::Rules</text>
</g>

<g id="58" class="node">
 <!-- Instructor.pm, rect -->
 <rect fill="#ffffff" height="43.8" stroke="#000000" width="133" x="43.1" y="603.9" />
 <text x="109" y="631" style="font-family:serif" fill="#000000" text-anchor="middle">Instructor.pm</text>
</g>

<g id="61" class="node">
 <!-- Instructors.pm, rect -->
 <rect fill="#ffffff" height="35" stroke="#000000" width="282" x="631.7" y="1123.9" />
 <text x="772" y="1147" style="font-family:serif" fill="#000000" text-anchor="middle">Instructors.pm</text>
</g>

<g id="62" class="node">
 <!-- Instructor, rect -->
 <rect fill="#ffffff" height="35" stroke="#000000" width="282" x="631.7" y="1223.9" />
 <text x="772" y="1247" style="font-family:serif" fill="#000000" text-anchor="middle">Instructor</text>
</g>

<g id="65" class="node">
 <!-- Log.pm, rect -->
 <rect fill="#ffffff" height="43.8" stroke="#000000" width="171" x="2036.1" y="296.7" />
 <text x="2121" y="324" style="font-family:serif" fill="#000000" text-anchor="middle">Log.pm</text>
</g>

<g id="66" class="node">
 <!-- Log::Any::For::Std, rect -->
 <rect fill="#ffffff" height="43.8" stroke="#000000" width="171" x="2036.1" y="117.5" />
 <text x="2121" y="145" style="font-family:serif" fill="#000000" text-anchor="middle">Log::Any::For::Std</text>
</g>

<g id="69" class="node">
 <!-- Log::Any, rect -->
 <rect fill="#ffffff" height="43.8" stroke="#000000" width="164" x="2278.5" y="296.7" />
 <text x="2360" y="324" style="font-family:serif" fill="#000000" text-anchor="middle">Log::Any</text>
</g>

<g id="71" class="node">
 <!-- Log::Any::Adapter, rect -->
 <rect fill="#ffffff" height="43.8" stroke="#000000" width="170" x="2481.9" y="296.7" />
 <text x="2566" y="324" style="font-family:serif" fill="#000000" text-anchor="middle">Log::Any::Adapter</text>
</g>

<g id="73" class="node">
 <!-- RecordTimeParser.pm, rect -->
 <rect fill="#ffffff" height="43.8" stroke="#000000" width="282" x="631.7" y="405.5" />
 <text x="772" y="433" style="font-family:serif" fill="#000000" text-anchor="middle">RecordTimeParser.pm</text>
</g>

<g id="75" class="node">
 <!-- Resource.pm, rect -->
 <rect fill="#ffffff" height="43.8" stroke="#000000" width="131" x="1596.3" y="187.9" />
 <text x="1661" y="215" style="font-family:serif" fill="#000000" text-anchor="middle">Resource.pm</text>
</g>

<g id="78" class="node">
 <!-- Resources.pm, rect -->
 <rect fill="#ffffff" height="43.8" stroke="#000000" width="282" x="631.7" y="1259.9" />
 <text x="772" y="1287" style="font-family:serif" fill="#000000" text-anchor="middle">Resources.pm</text>
</g>

<g id="79" class="node">
 <!-- Resource, rect -->
 <rect fill="#ffffff" height="43.8" stroke="#000000" width="114" x="985.1" y="1259.9" />
 <text x="1042" y="1287" style="font-family:serif" fill="#000000" text-anchor="middle">Resource</text>
</g>

<g id="81" class="node">
 <!-- Telegram.pm, rect -->
 <rect fill="#ffffff" height="152.6" stroke="#000000" width="282" x="631.7" y="495.1" />
 <text x="772" y="577" style="font-family:serif" fill="#000000" text-anchor="middle">Telegram.pm</text>
</g>

<g id="82" class="node">
 <!-- Serikoff::Telegram::Keyboards, rect -->
 <rect fill="#ffffff" height="35" stroke="#000000" width="282" x="631.7" y="712.7" />
 <text x="772" y="736" style="font-family:serif" fill="#000000" text-anchor="middle">Serikoff::Telegram::Keyboards</text>
</g>

<g id="84" class="node">
 <!-- Serikoff::Telegram::Polling, rect -->
 <rect fill="#ffffff" height="43.8" stroke="#000000" width="268" x="292.3" y="495.1" />
 <text x="426" y="523" style="font-family:serif" fill="#000000" text-anchor="middle">Serikoff::Telegram::Polling</text>
</g>

<g id="88" class="node">
 <!-- WWW::Telegram::BotAPI, rect -->
 <rect fill="#ffffff" height="43.8" stroke="#000000" width="222" x="1170.5" y="603.9" />
 <text x="1281" y="631" style="font-family:serif" fill="#000000" text-anchor="middle">WWW::Telegram::BotAPI</text>
</g>

<g id="90" class="node">
 <!-- UserFSM.pm, rect -->
 <rect fill="#ffffff" height="43.8" stroke="#000000" width="222" x="1170.5" y="1053.5" />
 <text x="1281" y="1081" style="font-family:serif" fill="#000000" text-anchor="middle">UserFSM.pm</text>
</g>

</svg>